HIERARCHY
ROOT hip
{
  OFFSET 0 90.174 2.4664
  CHANNELS 6 Xposition Yposition Zposition Zrotation Xrotation Yrotation
  JOINT abdomen
  {
    OFFSET 0 -1.186 -1.5018
    CHANNELS 6 Xposition Yposition Zposition Zrotation Xrotation Yrotation
    JOINT abdomen2
    {
      OFFSET 0 9.964 0.2134
      CHANNELS 6 Xposition Yposition Zposition Zrotation Xrotation Yrotation
      JOINT chest
      {
        OFFSET 0 13.134 -3.2573
        CHANNELS 6 Xposition Yposition Zposition Zrotation Xrotation Yrotation
        JOINT neck
        {
          OFFSET 0 20.686 -1.6905
          CHANNELS 6 Xposition Yposition Zposition Zrotation Xrotation Yrotation
          JOINT head
          {
            OFFSET 0 7.238 -0.1237
            CHANNELS 6 Xposition Yposition Zposition Zrotation Xrotation Yrotation
            End Site
            {
              OFFSET 0 0 0
            }
          }
        }
        JOINT lCollar
        {
          OFFSET 1.7069 20.075 5.0056
          CHANNELS 6 Xposition Yposition Zposition Zrotation Xrotation Yrotation
          JOINT lShldr
          {
            OFFSET 13.6458 -0.047 -4.849
            CHANNELS 6 Xposition Yposition Zposition Zrotation Xrotation Yrotation
            JOINT lForeArm
            {
              OFFSET 28.3255 -0.9759 2.2888
              CHANNELS 6 Xposition Yposition Zposition Zrotation Xrotation Yrotation
              JOINT lHand
              {
                OFFSET 22.1583 -0.53 10.8316
                CHANNELS 6 Xposition Yposition Zposition Zrotation Xrotation Yrotation
                JOINT lThumb1
                {
                  OFFSET 0.786 0.112 2.5817
                  CHANNELS 6 Xposition Yposition Zposition Zrotation Xrotation Yrotation
                  JOINT lThumb2
                  {
                    OFFSET 0.3601 -0.878 4.2331
                    CHANNELS 6 Xposition Yposition Zposition Zrotation Xrotation Yrotation
                    JOINT lThumb2_End
                    {
                      OFFSET 1.8127 -1.216 2.2227
                      CHANNELS 6 Xposition Yposition Zposition Zrotation Xrotation Yrotation
                      End Site
                      {
                        OFFSET 0.0181 -0.0122 0.0222
                      }
                    }
                  }
                }
                JOINT lCarpal1
                {
                  OFFSET 0.9571 1.114 1.7695
                  CHANNELS 6 Xposition Yposition Zposition Zrotation Xrotation Yrotation
                  JOINT lIndex1
                  {
                    OFFSET 4.1246 0.487 4.1451
                    CHANNELS 6 Xposition Yposition Zposition Zrotation Xrotation Yrotation
                    JOINT lIndex2
                    {
                      OFFSET 3.4052 -1.454 2.7682
                      CHANNELS 6 Xposition Yposition Zposition Zrotation Xrotation Yrotation
                      JOINT lIndex2_End
                      {
                        OFFSET 1.4531 -1.795 1.2713
                        CHANNELS 6 Xposition Yposition Zposition Zrotation Xrotation Yrotation
                        End Site
                        {
                          OFFSET 0.0145 -0.0179 0.0127
                        }
                      }
                    }
                  }
                  JOINT lMid1
                  {
                    OFFSET 5.6954 0.21 2.1184
                    CHANNELS 6 Xposition Yposition Zposition Zrotation Xrotation Yrotation
                    JOINT lMid2
                    {
                      OFFSET 3.9766 -1.54 2.3863
                      CHANNELS 6 Xposition Yposition Zposition Zrotation Xrotation Yrotation
                      JOINT lMid2_End
                      {
                        OFFSET 1.4042 -1.926 1.125
                        CHANNELS 6 Xposition Yposition Zposition Zrotation Xrotation Yrotation
                        End Site
                        {
                          OFFSET 0.014 -0.0193 0.0113
                        }
                      }
                    }
                  }
                }
                JOINT lCarpal2
                {
                  OFFSET 2.0956 0.66 -0.3894
                  CHANNELS 6 Xposition Yposition Zposition Zrotation Xrotation Yrotation
                  JOINT lRing1
                  {
                    OFFSET 5.0395 -0.09 2.4971
                    CHANNELS 6 Xposition Yposition Zposition Zrotation Xrotation Yrotation
                    JOINT lRing2
                    {
                      OFFSET 3.7921 -1.552 1.4806
                      CHANNELS 6 Xposition Yposition Zposition Zrotation Xrotation Yrotation
                      JOINT lRing2_End
                      {
                        OFFSET 1.4655 -1.808 0.9609
                        CHANNELS 6 Xposition Yposition Zposition Zrotation Xrotation Yrotation
                        End Site
                        {
                          OFFSET 0.0147 -0.0181 0.0096
                        }
                      }
                    }
                  }
                  JOINT lPinky1
                  {
                    OFFSET 4.9141 -1.269 0.3591
                    CHANNELS 6 Xposition Yposition Zposition Zrotation Xrotation Yrotation
                    JOINT lPinky2
                    {
                      OFFSET 3.1477 -1.685 0.8462
                      CHANNELS 6 Xposition Yposition Zposition Zrotation Xrotation Yrotation
                      JOINT lPinky2_End
                      {
                        OFFSET 0.8055 -1.585 0.7955
                        CHANNELS 6 Xposition Yposition Zposition Zrotation Xrotation Yrotation
                        End Site
                        {
                          OFFSET 0.0081 -0.0158 0.008
                        }
                      }
                    }
                  }
                }
              }
            }
          }
        }
        JOINT rCollar
        {
          OFFSET -1.7069 20.075 5.0056
          CHANNELS 6 Xposition Yposition Zposition Zrotation Xrotation Yrotation
          JOINT rShldr
          {
            OFFSET -13.6458 -0.047 -4.849
            CHANNELS 6 Xposition Yposition Zposition Zrotation Xrotation Yrotation
            JOINT rForeArm
            {
              OFFSET -28.3255 -0.9759 2.2888
              CHANNELS 6 Xposition Yposition Zposition Zrotation Xrotation Yrotation
              JOINT rHand
              {
                OFFSET -22.1583 -0.53 10.8316
                CHANNELS 6 Xposition Yposition Zposition Zrotation Xrotation Yrotation
                JOINT rThumb1
                {
                  OFFSET -0.786 0.112 2.5817
                  CHANNELS 6 Xposition Yposition Zposition Zrotation Xrotation Yrotation
                  JOINT rThumb2
                  {
                    OFFSET -0.3601 -0.878 4.2331
                    CHANNELS 6 Xposition Yposition Zposition Zrotation Xrotation Yrotation
                    JOINT rThumb2_End
                    {
                      OFFSET -1.8127 -1.216 2.2227
                      CHANNELS 6 Xposition Yposition Zposition Zrotation Xrotation Yrotation
                      End Site
                      {
                        OFFSET -0.0181 -0.0122 0.0222
                      }
                    }
                  }
                }
                JOINT rCarpal1
                {
                  OFFSET -0.9571 1.114 1.7695
                  CHANNELS 6 Xposition Yposition Zposition Zrotation Xrotation Yrotation
                  JOINT rIndex1
                  {
                    OFFSET -4.1246 0.487 4.1451
                    CHANNELS 6 Xposition Yposition Zposition Zrotation Xrotation Yrotation
                    JOINT rIndex2
                    {
                      OFFSET -3.4052 -1.454 2.7682
                      CHANNELS 6 Xposition Yposition Zposition Zrotation Xrotation Yrotation
                      JOINT rIndex2_End
                      {
                        OFFSET -1.4531 -1.795 1.2713
                        CHANNELS 6 Xposition Yposition Zposition Zrotation Xrotation Yrotation
                        End Site
                        {
                          OFFSET -0.0145 -0.018 0.0127
                        }
                      }
                    }
                  }
                  JOINT rMid1
                  {
                    OFFSET -5.6954 0.21 2.1184
                    CHANNELS 6 Xposition Yposition Zposition Zrotation Xrotation Yrotation
                    JOINT rMid2
                    {
                      OFFSET -3.9766 -1.54 2.3863
                      CHANNELS 6 Xposition Yposition Zposition Zrotation Xrotation Yrotation
                      JOINT rMid2_End
                      {
                        OFFSET -1.4042 -1.926 1.125
                        CHANNELS 6 Xposition Yposition Zposition Zrotation Xrotation Yrotation
                        End Site
                        {
                          OFFSET -0.014 -0.0193 0.0113
                        }
                      }
                    }
                  }
                }
                JOINT rCarpal2
                {
                  OFFSET -2.0956 0.66 -0.3894
                  CHANNELS 6 Xposition Yposition Zposition Zrotation Xrotation Yrotation
                  JOINT rRing1
                  {
                    OFFSET -5.0395 -0.09 2.4971
                    CHANNELS 6 Xposition Yposition Zposition Zrotation Xrotation Yrotation
                    JOINT rRing2
                    {
                      OFFSET -3.7921 -1.552 1.4806
                      CHANNELS 6 Xposition Yposition Zposition Zrotation Xrotation Yrotation
                      JOINT rRing2_End
                      {
                        OFFSET -1.4655 -1.808 0.9609
                        CHANNELS 6 Xposition Yposition Zposition Zrotation Xrotation Yrotation
                        End Site
                        {
                          OFFSET -0.0147 -0.0181 0.0096
                        }
                      }
                    }
                  }
                  JOINT rPinky1
                  {
                    OFFSET -4.9141 -1.269 0.3592
                    CHANNELS 6 Xposition Yposition Zposition Zrotation Xrotation Yrotation
                    JOINT rPinky2
                    {
                      OFFSET -3.1477 -1.685 0.8462
                      CHANNELS 6 Xposition Yposition Zposition Zrotation Xrotation Yrotation
                      JOINT rPinky2_End
                      {
                        OFFSET -0.8055 -1.585 0.7955
                        CHANNELS 6 Xposition Yposition Zposition Zrotation Xrotation Yrotation
                        End Site
                        {
                          OFFSET -0.0081 -0.0158 0.008
                        }
                      }
                    }
                  }
                }
              }
            }
          }
        }
      }
    }
  }
  JOINT lThigh
  {
    OFFSET 8.367 -8.2066 0.5982
    CHANNELS 6 Xposition Yposition Zposition Zrotation Xrotation Yrotation
    JOINT lShin
    {
      OFFSET 2.1923 -43.463 -0.4932
      CHANNELS 6 Xposition Yposition Zposition Zrotation Xrotation Yrotation
      JOINT lFoot
      {
        OFFSET 0.7333 -45.8593 -2.6451
        CHANNELS 6 Xposition Yposition Zposition Zrotation Xrotation Yrotation
        End Site
        {
          OFFSET 2.6618 -4.2699 12.3931
        }
      }
    }
  }
  JOINT rThigh
  {
    OFFSET -8.367 -8.2066 0.5982
    CHANNELS 6 Xposition Yposition Zposition Zrotation Xrotation Yrotation
    JOINT rShin
    {
      OFFSET -2.1923 -43.463 -0.4931
      CHANNELS 6 Xposition Yposition Zposition Zrotation Xrotation Yrotation
      JOINT rFoot
      {
        OFFSET -0.7333 -45.8593 -2.6451
        CHANNELS 6 Xposition Yposition Zposition Zrotation Xrotation Yrotation
        End Site
        {
          OFFSET -2.6618 -4.2699 12.3931
        }
      }
    }
  }
}
MOTION
Frames:	4
Frame Time:	0.0333333
0 90.174 2.4664 0 0 -0 0 -1.186 -1.5018 0 0 -0 0 9.964 0.2134 0 0 -0 0 13.134 -3.2573 0 0 -0 0 20.686 -1.6905 0 0 -0 0 7.238 -0.1237 0 0 -0 1.7069 20.075 5.0056 0 0 -0 13.6458 -0.047 -4.849 1.66051 0.0835086 5.75766 28.3255 -0.9759 2.2888 -0.0175111 0.895433 15.7816 22.1583 -0.53 10.8316 7.95139e-016 -1.98785e-016 -0 0.786 0.112 2.5817 5.46658e-016 -3.97569e-016 -0 0.3601 -0.878 4.2331 5.96354e-016 0 -0 1.8127 -1.216 2.2227 3.97569e-016 1.98785e-016 9.54166e-015 0.9571 1.114 1.7695 1.49089e-016 -3.97569e-016 -0 4.1246 0.487 4.1451 6.4605e-016 0 3.18055e-015 3.4052 -1.454 2.7682 5.96354e-016 0 3.18055e-015 1.4531 -1.795 1.2713 8.94531e-016 -1.98785e-016 6.36111e-015 5.6954 0.21 2.1184 6.4605e-016 0 3.18055e-015 3.9766 -1.54 2.3863 5.96354e-016 0 3.18055e-015 1.4042 -1.926 1.125 8.94531e-016 -1.98785e-016 6.36111e-015 2.0956 0.66 -0.3894 1.49089e-016 -3.97569e-016 -0 5.0395 -0.09 2.4971 6.4605e-016 0 3.18055e-015 3.7921 -1.552 1.4806 5.96354e-016 0 3.18055e-015 1.4655 -1.808 0.9609 8.94531e-016 -1.98785e-016 6.36111e-015 4.9141 -1.269 0.3591 6.4605e-016 0 3.18055e-015 3.1477 -1.685 0.8462 5.96354e-016 0 3.18055e-015 0.8055 -1.585 0.7955 8.94531e-016 -1.98785e-016 6.36111e-015 -1.7069 20.075 5.0056 0 0 -0 -13.6458 -0.047 -4.849 -1.4496 0.0636048 -5.0245 -28.3255 -0.9759 2.2888 -1.74811 1.20616 -16.8394 -22.1583 -0.53 10.8316 -1.19271e-015 1.98785e-016 -3.18055e-015 -0.786 0.112 2.5817 -3.97569e-016 1.98785e-016 -3.18055e-015 -0.3601 -0.878 4.2331 -2.98177e-016 1.98785e-016 -3.18055e-015 -1.8127 -1.216 2.2227 -2.98177e-016 3.97569e-016 -0 -0.9571 1.114 1.7695 4.96962e-016 0 -6.36111e-015 -4.1246 0.487 4.1451 -9.93923e-017 3.97569e-016 -0 -3.4052 -1.454 2.7682 -8.94531e-016 5.96354e-016 -0 -1.4531 -1.795 1.2713 -3.97569e-016 3.97569e-016 -0 -5.6954 0.21 2.1184 -9.93923e-017 3.97569e-016 -0 -3.9766 -1.54 2.3863 -8.94531e-016 5.96354e-016 -0 -1.4042 -1.926 1.125 -3.97569e-016 3.97569e-016 -0 -2.0956 0.66 -0.3894 4.96962e-016 0 -6.36111e-015 -5.0395 -0.09 2.4971 -9.93923e-017 3.97569e-016 -0 -3.7921 -1.552 1.4806 -8.94531e-016 5.96354e-016 -0 -1.4655 -1.808 0.9609 -3.97569e-016 3.97569e-016 -0 -4.9141 -1.269 0.3592 -9.93923e-017 3.97569e-016 -0 -3.1477 -1.685 0.8462 -8.94531e-016 5.96354e-016 -0 -0.8055 -1.585 0.7955 -3.97569e-016 3.97569e-016 -0 8.367 -8.2066 0.5982 -4.66115 -1.03232 0.120763 2.1923 -43.463 -0.4932 0.00990601 1.55097 0.177175 0.7333 -45.8593 -2.6451 4.65196 -0.54114 -0.255042 -8.367 -8.2066 0.5982 4.66115 -1.03222 -0.120763 -2.1923 -43.463 -0.4931 -0.00990459 1.5509 -0.177176 -0.7333 -45.8593 -2.6451 -4.65196 -0.541171 0.255041 
-3.35304 31.8325 2.5682 132.722 -53.9372 -0.373962 -3.55271e-015 -1.186 -1.5018 -0.051815 -3.67823 -0.213856 0 9.964 0.2134 -0.117812 -7.35624 -0.432424 -3.55271e-015 13.134 -3.2573 -0.117797 -7.35623 -0.432427 0 20.686 -1.6905 0.0656226 0.148926 0.0820953 0 7.238 -0.1237 5.58595e-006 0.122774 -5.30402e-006 1.7069 20.075 5.0056 11.4603 -0.577096 -6.41663 13.6458 -0.047 -4.849 -9.97569 -13.7172 -18.5317 28.3255 -0.9759 2.2888 0.946666 7.28102 -24.7025 22.1583 -0.53 10.8316 42.4536 -14.6112 6.55736 0.786 0.112 2.5817 -1.23638e-006 -4.15079e-007 -1.05944e-006 0.3601 -0.878 4.2331 -3.31043e-032 -2.38542e-015 -7.95139e-016 1.8127 -1.216 2.2227 -2.47276e-006 -8.30157e-007 -2.11889e-006 0.9571 1.114 1.7695 1.59028e-014 -2.38542e-015 -0 4.1246 0.487 4.1451 -1.23638e-006 -4.15079e-007 -1.05944e-006 3.4052 -1.454 2.7682 0 0 -7.95139e-016 1.4531 -1.795 1.2713 -2.47276e-006 -8.30157e-007 -2.11889e-006 5.6954 0.21 2.1184 -1.23638e-006 -4.15079e-007 -1.05944e-006 3.9766 -1.54 2.3863 0 0 -7.95139e-016 1.4042 -1.926 1.125 -2.47276e-006 -8.30157e-007 -2.11889e-006 2.0956 0.66 -0.3894 1.59028e-014 -2.38542e-015 -0 5.0395 -0.09 2.4971 -1.23638e-006 -4.15079e-007 -1.05944e-006 3.7921 -1.552 1.4806 0 0 -7.95139e-016 1.4655 -1.808 0.9609 -2.47276e-006 -8.30157e-007 -2.11889e-006 4.9141 -1.269 0.3591 -1.23638e-006 -4.15079e-007 -1.05944e-006 3.1477 -1.685 0.8462 0 0 -7.95139e-016 0.8055 -1.585 0.7955 -2.47276e-006 -8.30157e-007 -2.11889e-006 -1.7069 20.075 5.0056 13.8261 -0.149691 -1.25444 -13.6458 -0.047 -4.849 7.06234 7.99933 29.09 -28.3255 -0.9759 2.2888 -11.5265 -11.8883 5.73982 -22.1583 -0.53 10.8316 -42.4293 -14.7288 -6.93887 -0.786 0.112 2.5817 -1.76556e-031 3.18055e-015 3.18055e-015 -0.3601 -0.878 4.2331 -2.64834e-031 3.18055e-015 4.77083e-015 -1.8127 -1.216 2.2227 3.18055e-015 3.18055e-015 3.97569e-015 -0.9571 1.114 1.7695 -1.76556e-031 3.18055e-015 3.18055e-015 -4.1246 0.487 4.1451 3.18055e-015 3.18055e-015 6.36111e-015 -3.4052 -1.454 2.7682 -3.53113e-031 3.18055e-015 6.36111e-015 -1.4531 -1.795 1.2713 3.18055e-015 3.18055e-015 3.97569e-015 -5.6954 0.21 2.1184 3.18055e-015 3.18055e-015 6.36111e-015 -3.9766 -1.54 2.3863 -3.53113e-031 3.18055e-015 6.36111e-015 -1.4042 -1.926 1.125 3.18055e-015 3.18055e-015 3.97569e-015 -2.0956 0.66 -0.3894 -1.76556e-031 3.18055e-015 3.18055e-015 -5.0395 -0.09 2.4971 3.18055e-015 3.18055e-015 6.36111e-015 -3.7921 -1.552 1.4806 -3.53113e-031 3.18055e-015 6.36111e-015 -1.4655 -1.808 0.9609 3.18055e-015 3.18055e-015 3.97569e-015 -4.9141 -1.269 0.3592 3.18055e-015 3.18055e-015 6.36111e-015 -3.1477 -1.685 0.8462 -3.53113e-031 3.18055e-015 6.36111e-015 -0.8055 -1.585 0.7955 3.18055e-015 3.18055e-015 3.97569e-015 8.367 -8.2066 0.5982 7.20765 -42.5005 23.6194 2.1923 -43.463 -0.4932 -2.79263 27.5183 2.20071 0.7333 -45.8593 -2.6451 6.27363 42.5 -9.67084 -8.367 -8.2066 0.5982 -7.65905 -45.4801 -24.44 -2.1923 -43.463 -0.4931 3.0359 29.8292 -1.74993 -0.7333 -45.8593 -2.6451 -7.08006 43.9015 9.01778 
0.978179 14.7373 6.01119 -168.713 -78.8892 -1.63807 -8.88178e-016 -1.186 -1.5018 -0.0741932 -5.27372 -0.312347 8.88178e-016 9.964 0.2134 -0.178545 -10.5469 -0.635627 0 13.134 -3.2573 -0.178543 -10.5469 -0.635632 8.88178e-016 20.686 -1.6905 0.109756 0.26851 0.103084 1.77636e-015 7.238 -0.1237 -1.19332e-006 0.153745 1.83896e-007 1.7069 20.075 5.0056 16.3387 -0.540931 -9.68749 13.6458 -0.047 -4.849 -18.8821 -17.9462 -30.3028 28.3255 -0.9759 2.2888 3.72641 6.4971 -42.5523 22.1583 -0.53 10.8316 62.85 -18.856 12.584 0.786 0.112 2.5817 7.95139e-016 5.01931e-015 -0 0.3601 -0.878 4.2331 1.98785e-016 1.49089e-015 -3.18055e-015 1.8127 -1.216 2.2227 1.98785e-016 1.19271e-015 -3.18055e-015 0.9571 1.114 1.7695 7.95139e-016 5.36719e-015 -0 4.1246 0.487 4.1451 3.37934e-015 4.62174e-015 1.27222e-014 3.4052 -1.454 2.7682 2.38542e-015 4.07509e-015 -0 1.4531 -1.795 1.2713 3.97569e-016 4.47266e-016 3.18055e-015 5.6954 0.21 2.1184 3.37934e-015 4.62174e-015 1.27222e-014 3.9766 -1.54 2.3863 2.38542e-015 4.07509e-015 -0 1.4042 -1.926 1.125 3.97569e-016 4.47266e-016 3.18055e-015 2.0956 0.66 -0.3894 7.95139e-016 5.36719e-015 -0 5.0395 -0.09 2.4971 3.37934e-015 4.62174e-015 1.27222e-014 3.7921 -1.552 1.4806 2.38542e-015 4.07509e-015 -0 1.4655 -1.808 0.9609 3.97569e-016 4.47266e-016 3.18055e-015 4.9141 -1.269 0.3591 3.37934e-015 4.62174e-015 1.27222e-014 3.1477 -1.685 0.8462 2.38542e-015 4.07509e-015 -0 0.8055 -1.585 0.7955 3.97569e-016 4.47266e-016 3.18055e-015 -1.7069 20.075 5.0056 20.2287 -0.0589599 -1.62797 -13.6458 -0.047 -4.849 7.95852 8.93857 44.5168 -28.3255 -0.9759 2.2888 -13.0507 -16.0625 16.3909 -22.1583 -0.53 10.8316 -62.8012 -18.8063 -13.2089 -0.786 0.112 2.5817 1.61565e-006 -5.14007e-007 6.66215e-008 -0.3601 -0.878 4.2331 9.36327e-007 1.46909e-007 8.12368e-008 -1.8127 -1.216 2.2227 -4.47266e-016 1.14301e-015 -0 -0.9571 1.114 1.7695 -3.55328e-015 -2.13694e-015 6.36111e-015 -4.1246 0.487 4.1451 1.61565e-006 -5.14007e-007 6.66215e-008 -3.4052 -1.454 2.7682 9.36327e-007 1.46909e-007 8.12368e-008 -1.4531 -1.795 1.2713 -3.08116e-015 1.19271e-015 -3.18055e-015 -5.6954 0.21 2.1184 1.61565e-006 -5.14007e-007 6.66215e-008 -3.9766 -1.54 2.3863 9.36327e-007 1.46909e-007 8.12368e-008 -1.4042 -1.926 1.125 -3.08116e-015 1.19271e-015 -3.18055e-015 -2.0956 0.66 -0.3894 -3.55328e-015 -2.13694e-015 6.36111e-015 -5.0395 -0.09 2.4971 1.61565e-006 -5.14007e-007 6.66215e-008 -3.7921 -1.552 1.4806 9.36327e-007 1.46909e-007 8.12368e-008 -1.4655 -1.808 0.9609 -3.08116e-015 1.19271e-015 -3.18055e-015 -4.9141 -1.269 0.3592 1.61565e-006 -5.14007e-007 6.66215e-008 -3.1477 -1.685 0.8462 9.36327e-007 1.46909e-007 8.12368e-008 -0.8055 -1.585 0.7955 -3.08116e-015 1.19271e-015 -3.18055e-015 8.367 -8.2066 0.5982 28.2014 -56.6459 46.3272 2.1923 -43.463 -0.4932 -4.15568 40.0562 3.12458 0.7333 -45.8593 -2.6451 17.0405 61.2233 -19.3898 -8.367 -8.2066 0.5982 -30.3767 -56.6667 -48.2543 -2.1923 -43.463 -0.4931 4.26702 42.6923 -2.72885 -0.7333 -45.8593 -2.6451 -16.6931 60.6896 19.3617 
0.769883 18.0405 4.75272 178.553 -74.866 -1.0969 0 -1.186 -1.5018 -0.0718492 -4.78601 -0.289556 0 9.964 0.2134 -0.168959 -9.57161 -0.588255 2.22045e-016 13.134 -3.2573 -0.168959 -9.57159 -0.588255 0 20.686 -1.6905 0.132957 0.359819 0.0628868 0 7.238 -0.1237 1.2072e-007 0.0928583 9.15913e-008 1.7069 20.075 5.0056 14.7321 0.0965923 -9.81133 13.6458 -0.047 -4.849 -16.595 -17.2567 -27.4009 28.3255 -0.9759 2.2888 3.10156 6.93911 -37.7235 22.1583 -0.53 10.8316 58.1411 -18.2871 10.481 0.786 0.112 2.5817 1.59028e-015 -1.19271e-015 9.54166e-015 0.3601 -0.878 4.2331 -3.18055e-015 -1.19271e-015 9.54166e-015 1.8127 -1.216 2.2227 -3.18055e-015 -1.19271e-015 3.18055e-015 0.9571 1.114 1.7695 3.18055e-015 0 6.36111e-015 4.1246 0.487 4.1451 1.98626e-031 -1.19271e-015 9.54166e-015 3.4052 -1.454 2.7682 -3.18055e-015 -1.59028e-015 9.54166e-015 1.4531 -1.795 1.2713 2.20695e-032 -3.97569e-016 3.18055e-015 5.6954 0.21 2.1184 1.98626e-031 -1.19271e-015 9.54166e-015 3.9766 -1.54 2.3863 -3.18055e-015 -1.59028e-015 9.54166e-015 1.4042 -1.926 1.125 2.20695e-032 -3.97569e-016 3.18055e-015 2.0956 0.66 -0.3894 3.18055e-015 0 6.36111e-015 5.0395 -0.09 2.4971 1.98626e-031 -1.19271e-015 9.54166e-015 3.7921 -1.552 1.4806 -3.18055e-015 -1.59028e-015 9.54166e-015 1.4655 -1.808 0.9609 2.20695e-032 -3.97569e-016 3.18055e-015 4.9141 -1.269 0.3591 1.98626e-031 -1.19271e-015 9.54166e-015 3.1477 -1.685 0.8462 -3.18055e-015 -1.59028e-015 9.54166e-015 0.8055 -1.585 0.7955 2.20695e-032 -3.97569e-016 3.18055e-015 -1.7069 20.075 5.0056 19.2088 0.272633 -1.12094 -13.6458 -0.047 -4.849 7.78952 8.84678 40.6635 -28.3255 -0.9759 2.2888 -12.7954 -15.1923 13.4987 -22.1583 -0.53 10.8316 -58.0013 -18.0115 -11.2011 -0.786 0.112 2.5817 -1.59028e-015 0 1.27222e-014 -0.3601 -0.878 4.2331 8.05405e-007 -2.60471e-007 1.10837e-007 -1.8127 -1.216 2.2227 3.18055e-015 3.18055e-015 -1.27222e-014 -0.9571 1.114 1.7695 -1.59028e-015 0 -0 -4.1246 0.487 4.1451 -4.77083e-015 4.77083e-015 1.27222e-014 -3.4052 -1.454 2.7682 8.05405e-007 -2.60471e-007 1.10837e-007 -1.4531 -1.795 1.2713 -1.59028e-015 1.59028e-015 1.27222e-014 -5.6954 0.21 2.1184 -4.77083e-015 4.77083e-015 1.27222e-014 -3.9766 -1.54 2.3863 8.05405e-007 -2.60471e-007 1.10837e-007 -1.4042 -1.926 1.125 -1.59028e-015 1.59028e-015 1.27222e-014 -2.0956 0.66 -0.3894 -1.59028e-015 0 -0 -5.0395 -0.09 2.4971 -4.77083e-015 4.77083e-015 1.27222e-014 -3.7921 -1.552 1.4806 8.05405e-007 -2.60471e-007 1.10837e-007 -1.4655 -1.808 0.9609 -1.59028e-015 1.59028e-015 1.27222e-014 -4.9141 -1.269 0.3592 -4.77083e-015 4.77083e-015 1.27222e-014 -3.1477 -1.685 0.8462 8.05405e-007 -2.60471e-007 1.10837e-007 -0.8055 -1.585 0.7955 -1.59028e-015 1.59028e-015 1.27222e-014 8.367 -8.2066 0.5982 20.5069 -52.6273 38.0037 2.1923 -43.463 -0.4932 -4.04337 37.6121 2.89773 0.7333 -45.8593 -2.6451 12.428 56.6684 -14.8142 -8.367 -8.2066 0.5982 -21.2574 -53 -38.9234 -2.1923 -43.463 -0.4931 3.89602 38.5358 -2.52294 -0.7333 -45.8593 -2.6451 -12.9318 57.4084 15.2786 
